<?xml version="1.0" encoding="UTF-8"?>
<svg width="112px" height="136px" viewBox="0 0 112 136" version="1.1" xmlns="http://www.w3.org/2000/svg" xmlns:xlink="http://www.w3.org/1999/xlink">
    <title>企业</title>
    <g id="页面-1" stroke="none" stroke-width="1" fill="none" fill-rule="evenodd">
        <g id="企业" transform="translate(0.945312, 0.445312)" fill="#45CAFF" fill-rule="nonzero">
            <path d="M14.1138395,25.521073 L65.1175215,1.10012051 C66.7566711,-0.111424805 69.0134711,-0.111424805 70.6526207,1.10012051 C72.4818166,2.31166582 73.7171178,3.52321113 73.7171178,5.99381328 L73.7171178,127.979797 C73.7171178,130.402888 73.7171178,130.996783 73.0994672,132.232084 C72.4818166,132.849734 71.8879219,134.06128 71.2702713,134.06128 C70.0349701,134.67893 68.7996691,134.67893 66.3290668,134.67893 L6.79705586,134.67893 C4.35020938,134.67893 3.73255898,134.67893 2.52101367,134.06128 C1.90336309,133.443629 0.691817773,132.849734 0.691817773,132.232084 C0.0741671875,131.020538 0.0741671875,130.402888 0.0741671875,128.003553 L0.0741671875,51.1060594 C0.0741671875,44.3831707 0.691817773,42.5539748 1.2857125,39.5369895 C1.90336309,37.1138988 3.13866406,34.6432967 4.96786016,32.8141008 C6.7733002,30.9849049 8.62625195,29.1794648 14.1138395,25.521073 Z M24.5663873,61.5110957 C24.5663873,65.1694875 27.0369895,67.6163338 29.5075916,67.6163338 L44.2599375,67.6163338 C46.706784,67.6163338 49.201142,65.1932432 49.201142,61.5110957 C49.201142,57.8527039 46.7305398,55.4058574 44.2599375,55.4058574 L29.5075916,55.4058574 C27.0369895,55.4058574 24.5663873,57.828948 24.5663873,61.5110957 Z M25.2077936,79.8268102 C24.590143,81.8222965 24.590143,83.9603178 25.2077936,85.9320482 C25.8491998,87.7374883 27.5596168,88.9490336 29.4838359,88.9727895 L44.2361818,88.9727895 C46.6830283,88.9727895 49.1773861,86.5496988 49.1773861,82.8675512 C49.1773861,79.2329152 46.706784,76.7623131 44.2361818,76.7623131 L29.4838359,76.7623131 L29.4838359,76.8098246 C27.65464,76.8098246 26.4430947,78.0213699 25.2077936,79.8268102 L25.2077936,79.8268102 Z M24.5663873,104.224007 C24.5663873,107.906154 27.0369895,110.329245 29.5075916,110.329245 L44.2599375,110.329245 C46.706784,110.329245 49.201142,107.906154 49.201142,104.224007 C49.201142,100.541859 46.7305398,98.1187687 44.2599375,98.1187687 L29.5075916,98.1187687 C27.0369895,98.1187687 24.5663873,100.541859 24.5663873,104.224007 Z" id="形状"></path>
            <path d="M89.0633584,31.6025555 C87.2341625,32.2202061 85.9988613,34.049402 85.9988613,36.4962482 L85.9988613,128.003553 C85.9988613,130.426644 85.9988613,131.044294 86.6165119,132.25584 C87.2341625,133.467385 87.8280572,133.467385 88.4457078,134.085036 C89.0633584,134.702686 90.2749037,134.702686 92.1040996,134.702686 L104.409599,134.702686 C106.880201,134.702686 107.474096,134.702686 108.091746,134.085036 L109.920942,132.25584 C110.538593,131.661945 110.538593,130.426644 110.538593,128.003553 L110.538593,62.722641 C110.538593,57.2112977 110.538593,55.4058576 109.920942,53.5766615 C109.303292,51.7712215 108.709397,49.9420256 107.474096,48.0653182 C106.262551,46.2361223 105.6449,45.024577 101.938997,40.7485348 L94.5984576,32.8141008 C93.0780871,31.4837766 90.9875775,31.0324164 89.0633584,31.6025555 Z" id="路径"></path>
        </g>
    </g>
</svg>