<?xml version="1.0" encoding="UTF-8"?>
<svg width="280px" height="24px" viewBox="0 0 280 24" version="1.1" xmlns="http://www.w3.org/2000/svg" xmlns:xlink="http://www.w3.org/1999/xlink">
    <title>装饰条3</title>
    <defs>
        <filter id="filter-1">
            <feColorMatrix in="SourceGraphic" type="matrix" values="0 0 0 0 0.847000 0 0 0 0 0.847000 0 0 0 0 0.847000 0 0 0 1.000000 0"></feColorMatrix>
        </filter>
    </defs>
    <g id="装饰条3" stroke="none" stroke-width="1" fill="none" fill-rule="evenodd">
        <g filter="url(#filter-1)" id="装饰条1（600*30）备份-2">
            <g transform="translate(0.022386, 9.900000)">
                <line x1="4.526703" y1="2.5" x2="274.977614" y2="2.5" id="直线" stroke="#FFFFFF" stroke-linecap="square"></line>
                <path d="M277.477614,0.5 C278.029899,0.5 278.529899,0.723857625 278.891827,1.08578644 C279.253756,1.44771525 279.477614,1.94771525 279.477614,2.5 C279.477614,3.05228475 279.253756,3.55228475 278.891827,3.91421356 C278.529899,4.27614237 278.029899,4.5 277.477614,4.5 C276.925329,4.5 276.425329,4.27614237 276.0634,3.91421356 C275.701471,3.55228475 275.477614,3.05228475 275.477614,2.5 C275.477614,1.94771525 275.701471,1.44771525 276.0634,1.08578644 C276.425329,0.723857625 276.925329,0.5 277.477614,0.5 Z" id="椭圆形备份" stroke="#FFFFFF"></path>
                <path d="M2.5,0.5 C3.05228475,0.5 3.55228475,0.723857625 3.91421356,1.08578644 C4.27614237,1.44771525 4.5,1.94771525 4.5,2.5 C4.5,3.05228475 4.27614237,3.55228475 3.91421356,3.91421356 C3.55228475,4.27614237 3.05228475,4.5 2.5,4.5 C1.94771525,4.5 1.44771525,4.27614237 1.08578644,3.91421356 C0.723857625,3.55228475 0.5,3.05228475 0.5,2.5 C0.5,1.94771525 0.723857625,1.44771525 1.08578644,1.08578644 C1.44771525,0.723857625 1.94771525,0.5 2.5,0.5 Z" id="椭圆形备份" stroke="#FFFFFF"></path>
            </g>
        </g>
    </g>
</svg>