<?xml version="1.0" encoding="UTF-8"?>
<svg width="164px" height="157px" viewBox="0 0 164 157" version="1.1" xmlns="http://www.w3.org/2000/svg" xmlns:xlink="http://www.w3.org/1999/xlink">
    <title>仓库</title>
    <g id="页面-1" stroke="none" stroke-width="1" fill="none" fill-rule="evenodd">
        <g id="仓库" transform="translate(0.140625, 0.781250)" fill="#238001" fill-rule="nonzero">
            <path d="M66.171875,5.25390625 L4.6484375,54.7070312 C1.71875,57.0703125 2.77555756e-15,60.6445312 2.77555756e-15,64.4140625 L2.77555756e-15,151.816406 C2.77555756e-15,153.886719 1.6796875,155.546875 3.73046875,155.546875 L158.457031,155.546875 C160.527344,155.546875 162.1875,153.867188 162.1875,151.816406 L162.1875,64.4140625 C162.1875,60.625 160.46875,57.0507812 157.519531,54.7070312 L95.6835938,5.21484375 C87.0507812,-1.6796875 74.7851562,-1.6796875 66.171875,5.25390625 Z M47.3632812,139.648438 L15.546875,139.648438 L15.546875,107.910156 L47.3632812,107.910156 L47.3632812,139.648438 Z M47.3632812,94.53125 L15.546875,94.53125 L15.546875,62.7929687 L47.3632812,62.7929687 L47.3632812,94.53125 Z M93.75,139.648438 L61.9335938,139.648438 L61.9335938,107.910156 L93.75,107.910156 L93.75,139.648438 Z" id="形状"></path>
        </g>
    </g>
</svg>